<svg xmlns="http://www.w3.org/2000/svg" viewBox="0 0 4039.68 1116.81"><title>Click-Man Control Panel Logo - Black</title><g id="Layer_2" data-name="Layer 2"><g id="click_logo" data-name="click logo"><rect x="1835.96" y="387.53" width="246.86" height="112.53"/><path d="M2925.57,408V689.72H2799.64v-250q0-126-81.71-126-41.34,0-68.73,35.21t-27.4,98.71V689.72H2495.88v-250q0-126-82.67-126-44.24,0-71.62,35.21t-27.4,98.71V689.72H2188.27V205.6h125.92v64.49h1q55.73-72.4,140.34-72.42,98.05,0,139.39,77.38h1.92q58.62-77.38,163.42-77.38Q2925.55,197.67,2925.57,408Z"/><path d="M3362,205.6v54.57h-2.89q-50-62.51-137.46-62.5-95.16,0-158.13,70.93t-63,180.06q0,111.1,63,180.05t161,68.95q91.32,0,140.35-66.47h2.89v58.53H3487V205.6Zm-29.8,339.28q-34.61,36.72-84.59,36.71-52.89,0-86.52-36.71t-33.65-95.23q0-61.5,34.61-98.71t86.52-37.2q50.94,0,84.59,38.69t33.64,97.22Q3366.79,508.2,3332.19,544.88Z"/><path d="M4039.68,402V689.72H3913.76v-255q0-66.47-22.11-93.75t-68.25-27.28q-49,0-77.87,34.22t-28.84,97.72v244H3590.77V205.6h125.92v62.5h1.93q57.68-70.43,150-70.43Q4039.67,197.67,4039.68,402Z"/><path d="M1803.53,1026.53l40.23,35.87q-42.18,54-110.52,54-59.76,0-100.57-38.7t-40.81-106.4q0-63.67,37.69-105.59t103.69-41.92a138.4,138.4,0,0,1,59.55,13.7q29.1,13.71,51,41.11l-40.23,35.47q-30.08-36.27-70.29-36.27-36.72,0-60.34,25.59t-23.63,67.91q0,39.9,23.43,65.7t60.54,25.79Q1775,1062.8,1803.53,1026.53Z"/><path d="M2042.15,941.89q-28.5-28.2-73-28.21-44.91,0-73,28.61t-28.11,73q0,44.34,28.11,73t73,28.62q44.54,0,73-28.21t28.51-73.36Q2070.66,970.11,2042.15,941.89Zm-37.68,112.45q-14.27,15.32-35.35,15.31-21.48,0-35.53-15.72t-14.06-38.69q0-23.37,13.86-38.89t35.73-15.52q21.48,0,35.54,15.12t14.06,39.29Q2018.72,1039,2004.47,1054.34Z"/><path d="M2292.09,996.7v116.88h-51.16V1010q0-27-9-38.08t-27.73-11.09q-19.91,0-31.63,13.91t-11.72,39.7v99.14h-51.16V916.9h51.16v25.39h.79q23.43-28.6,60.92-28.61Q2292.09,913.68,2292.09,996.7Z"/><path d="M2449.09,1104.72q-21.89,12.09-50.77,12.09-25.4,0-39.84-16.53T2344,1051.52V960.43h-22.65V916.9H2344V852.42l50.77-5.65V916.9h51.95v43.53H2394.8v83.83q0,25,16.8,25,10.92,0,24.21-6.85Z"/><path d="M2595.92,914.08v57.23q-5.07-.39-13.27-.4-23.05,0-35.93,14.31t-12.89,36.87v91.49h-51.16V916.9h51.16v29h.39q22.26-32.24,57.8-32.24A11.31,11.31,0,0,1,2595.92,914.08Z"/><path d="M2786.51,941.89q-28.52-28.2-73-28.21-44.91,0-73,28.61t-28.12,73q0,44.34,28.12,73t73,28.62q44.52,0,73-28.21t28.51-73.36Q2815,970.11,2786.51,941.89Zm-37.69,112.45q-14.27,15.32-35.34,15.31-21.48,0-35.54-15.72t-14.06-38.69q0-23.37,13.86-38.89t35.74-15.52q21.46,0,35.54,15.12t14.06,39.29Q2763.08,1039,2748.82,1054.34Z"/><rect x="2856.41" y="816.95" width="51.16" height="296.63"/><path d="M3240.11,853.42q-24-26-72.45-26H3065v286.15h54.28v-97.93h43.35q47.25,0,74.4-23.58t27.14-69.53Q3264.12,879.43,3240.11,853.42ZM3194,953.58q-13.08,11.68-38.47,11.69h-36.32V877.81h38.67q23.43,0,36.32,11.69t12.89,31.84Q3207.11,941.89,3194,953.58Z"/><path d="M3435.57,916.9v22.17h-1.17q-20.31-25.4-55.85-25.39-38.65,0-64.24,28.81t-25.58,73.16q0,45.14,25.58,73.15t65.41,28q37.11,0,57-27h1.17v23.78h48.43V916.9Zm-12.11,137.84a45.42,45.42,0,0,1-34.36,14.91q-21.48,0-35.15-14.91t-13.67-38.69q0-25,14.06-40.1t35.15-15.12q20.69,0,34.36,15.72t13.67,39.5Q3437.52,1039.84,3423.46,1054.74Z"/><path d="M3716.75,996.7v116.88h-51.16V1010q0-27-9-38.08t-27.73-11.09q-19.9,0-31.63,13.91t-11.72,39.7v99.14h-51.16V916.9h51.16v25.39h.79q23.43-28.6,60.92-28.61Q3716.75,913.68,3716.75,996.7Z"/><path d="M3941.31,1013.23q0-43.53-26-71.54t-67.37-28q-41,0-67.76,28.41t-26.75,72.75q0,45.55,27.73,73.76t70.3,28.21q53.9,0,82.4-37.08l-33.19-31.84q-18,22.58-45.7,22.17-18.36,0-31.24-10.08t-17.57-27.81h133.95Q3941.31,1028.95,3941.31,1013.23Zm-134.73-19q4.29-16.51,15.62-25.39t27.34-8.86q32.4,0,41,34.25Z"/><rect x="3982.71" y="816.95" width="51.16" height="296.63"/><path id="c" d="M257.8,326.14q-53.66,0-86.51,35.47T138.41,455q0,57.11,32.88,92.57t86.51,35.47q64.88,0,99.48-39.8l76.13,89.11q-32.9,32.88-79.16,49.31T252.6,698.12q-75.25,0-132.35-30.27T31.58,582.2Q0,526.85,0,454.17,0,382.38,32,327t89.53-85.64q57.52-30.27,133.66-30.28a268.33,268.33,0,0,1,86.94,14.27,250.46,250.46,0,0,1,75.7,41.1l-75.27,90.83Q308.83,326.14,257.8,326.14Z"/><path id="l" d="M486.17,689.47V14.71H620.25V689.47Z"/><path id="i" d="M717.39,220V689.73H851.48V220Z"/><path id="c-2" data-name="c" d="M1179.09,326.14q-53.65,0-86.51,35.47T1059.7,455q0,57.11,32.88,92.57t86.51,35.47q64.88,0,99.48-39.8l76.13,89.11q-32.9,32.88-79.16,49.31t-101.65,16.43q-75.26,0-132.35-30.27T952.87,582.2q-31.59-55.35-31.58-128,0-71.79,32-127.17t89.53-85.64q57.53-30.27,133.66-30.28a268.33,268.33,0,0,1,86.94,14.27,250.46,250.46,0,0,1,75.7,41.1l-75.27,90.83Q1230.13,326.14,1179.09,326.14Z"/><polygon id="k" points="1881.52 220.6 1832.43 271.03 1829.97 273.57 1692.07 415.25 1692.11 415.29 1670.32 437.69 1580.7 356.32 1711.1 220.6 1881.52 220.6"/><polygon id="k-2" data-name="k" points="1541.54 14.71 1541.54 320.78 1445.6 233.67 1406.59 198.26 1406.59 14.71 1541.54 14.71"/><polygon points="1953.72 773.37 1593.76 694.18 1406.59 980.34 1406.59 276.63 1953.72 773.37"/><circle cx="784.18" cy="78.29" r="78.29"/></g></g></svg>